<svg xmlns="http://www.w3.org/2000/svg" viewBox="0 0 280 140" role="img" aria-label="Distance-decay curve with permutation envelope band">
  <rect width="280" height="140" fill="#FAFAFA"/>
  <!-- Axes -->
  <line x1="30" y1="115" x2="265" y2="115" stroke="#A1A1AA" stroke-width="0.8"/>
  <line x1="30" y1="15" x2="30" y2="115" stroke="#A1A1AA" stroke-width="0.8"/>
  <!-- Envelope (95% permutation band) -->
  <path d="M30,55 Q90,70 150,90 T265,108 L265,118 Q150,100 90,80 T30,68 Z" fill="rgba(148,163,184,0.30)"/>
  <!-- Observed curve -->
  <path d="M30,40 Q90,60 150,82 T265,104" fill="none" stroke="#0EA5E9" stroke-width="2.2"/>
  <!-- POI star -->
  <polygon points="30,28 33,36 41,36 35,41 37,49 30,44 23,49 25,41 19,36 27,36" fill="#F59E0B"/>
  <!-- Axis labels -->
  <text x="148" y="132" font-family="ui-sans-serif, system-ui" font-size="8" fill="#52525B" text-anchor="middle">Distance from POI →</text>
  <text x="15" y="65" font-family="ui-sans-serif, system-ui" font-size="8" fill="#52525B" transform="rotate(-90 15 65)" text-anchor="middle">Mean response →</text>
  <text x="48" y="22" font-family="ui-monospace, monospace" font-size="7" fill="#A16207">POI</text>
</svg>