<svg xmlns="http://www.w3.org/2000/svg" width="320" height="180" viewBox="0 0 320 180">
  <rect width="320" height="180" fill="#1a1a2e"/>
  <text x="10" y="18" fill="#94a3b8" font-size="11" font-family="monospace">Straight-line Detector</text>
  <rect x="10" y="30" width="8" height="8" rx="1" fill="#60a5fa"/>
  <rect x="25" y="30" width="8" height="8" rx="1" fill="#34d399"/>
  <rect x="40" y="30" width="8" height="8" rx="1" fill="#f59e0b"/>
  <rect x="55" y="30" width="8" height="8" rx="1" fill="#60a5fa"/>
  <rect x="70" y="30" width="8" height="8" rx="1" fill="#34d399"/>
  <text x="90" y="39" fill="#64748b" font-size="9" font-family="monospace">varied</text>
  <rect x="10" y="50" width="8" height="8" rx="1" fill="#f87171"><animate attributeName="opacity" values="1;0.3;1" dur="1.2s" repeatCount="indefinite"/></rect>
  <rect x="25" y="50" width="8" height="8" rx="1" fill="#f87171"><animate attributeName="opacity" values="1;0.3;1" dur="1.2s" begin="0.1s" repeatCount="indefinite"/></rect>
  <rect x="40" y="50" width="8" height="8" rx="1" fill="#f87171"><animate attributeName="opacity" values="1;0.3;1" dur="1.2s" begin="0.2s" repeatCount="indefinite"/></rect>
  <rect x="55" y="50" width="8" height="8" rx="1" fill="#f87171"><animate attributeName="opacity" values="1;0.3;1" dur="1.2s" begin="0.3s" repeatCount="indefinite"/></rect>
  <rect x="70" y="50" width="8" height="8" rx="1" fill="#f87171"><animate attributeName="opacity" values="1;0.3;1" dur="1.2s" begin="0.4s" repeatCount="indefinite"/></rect>
  <text x="90" y="59" fill="#f87171" font-size="9" font-family="monospace">&#9888; flagged</text>
  <rect x="10" y="70" width="8" height="8" rx="1" fill="#f59e0b"/>
  <rect x="25" y="70" width="8" height="8" rx="1" fill="#60a5fa"/>
  <rect x="40" y="70" width="8" height="8" rx="1" fill="#f59e0b"/>
  <rect x="55" y="70" width="8" height="8" rx="1" fill="#34d399"/>
  <rect x="70" y="70" width="8" height="8" rx="1" fill="#f59e0b"/>
  <text x="90" y="79" fill="#64748b" font-size="9" font-family="monospace">varied</text>
  <text x="10" y="165" fill="#64748b" font-size="8" font-family="monospace">longstring index · review, never auto-delete</text>
</svg>
